HIERARCHY
ROOT Hips
{
  OFFSET 0 0 0
  CHANNELS 6 Xposition Yposition Zposition Zrotation Xrotation Yrotation
  JOINT Spine
  {
    OFFSET 0.00000000 0.00000000 0.00000000
    CHANNELS 3 Zrotation Xrotation Yrotation
    JOINT Spine1
    {
      OFFSET 0.19000000 0.00000000 0.00000000
      CHANNELS 3 Zrotation Xrotation Yrotation
      JOINT Neck
      {
        OFFSET 0.22500000 0.00600000 0.00000000
        CHANNELS 3 Zrotation Xrotation Yrotation
        JOINT Head
        {
          OFFSET 0.14000000 0.00030878 0.00000000
          CHANNELS 3 Zrotation Xrotation Yrotation
          End Site
          {
            OFFSET 0.17000000 0.00000000 0.00000000
          }
        }
      }
      JOINT LeftShoulder
      {
        OFFSET 0.19800000 0.03700000 0.04300000
        CHANNELS 3 Zrotation Xrotation Yrotation
        JOINT LeftArm
        {
          OFFSET 0.08000000 0.00000000 0.00000000
          CHANNELS 3 Zrotation Xrotation Yrotation
          JOINT LeftForeArm
          {
            OFFSET 0.15200000 0.00000000 0.00000000
            CHANNELS 3 Zrotation Xrotation Yrotation
            JOINT LeftHand
            {
              OFFSET 0.17800000 0.00000000 0.00000000
              CHANNELS 3 Zrotation Xrotation Yrotation
              End Site
              {
                OFFSET 0.07200000 0.00000000 0.00000000
              }
            }
          }
        }
      }
      JOINT RightShoulder
      {
        OFFSET 0.19800000 0.03700000 -0.04300000
        CHANNELS 3 Zrotation Xrotation Yrotation
        JOINT RightArm
        {
          OFFSET 0.08000000 0.00000000 0.00151654
          CHANNELS 3 Zrotation Xrotation Yrotation
          JOINT RightForeArm
          {
            OFFSET 0.15200000 0.00000000 0.00000000
            CHANNELS 3 Zrotation Xrotation Yrotation
            JOINT RightHand
            {
              OFFSET 0.17800000 0.00000000 0.00000000
              CHANNELS 3 Zrotation Xrotation Yrotation
              End Site
              {
                OFFSET 0.07200000 0.00000000 0.00000000
              }
            }
          }
        }
      }
    }
  }
  JOINT LeftUpLeg
  {
    OFFSET 0.05984250 -0.07666000 0.04788790
    CHANNELS 3 Zrotation Xrotation Yrotation
    JOINT LeftLeg
    {
      OFFSET 0.16000000 0.00000000 0.00000000
      CHANNELS 3 Zrotation Xrotation Yrotation
      JOINT LeftFoot
      {
        OFFSET 0.18000000 0.00000000 0.00000000
        CHANNELS 3 Zrotation Xrotation Yrotation
        End Site
        {
          OFFSET 0.00000000 -0.10800000 0.00000000
        }
      }
    }
  }
  JOINT RightUpLeg
  {
    OFFSET 0.05984250 -0.07665980 -0.04788790
    CHANNELS 3 Zrotation Xrotation Yrotation
    JOINT RightLeg
    {
      OFFSET 0.16000000 0.00000000 0.00000000
      CHANNELS 3 Zrotation Xrotation Yrotation
      JOINT RightFoot
      {
        OFFSET 0.18000000 0.00000000 0.00000000
        CHANNELS 3 Zrotation Xrotation Yrotation
        End Site
        {
          OFFSET 0.00000000 -0.10800000 0.00000000
        }
      }
    }
  }
  JOINT Tail
  {
    OFFSET 0.06836960 -0.00722574 0.00000000
    CHANNELS 3 Zrotation Xrotation Yrotation
    JOINT Tail1
    {
      OFFSET 0.12000000 0.00000000 0.00000000
      CHANNELS 3 Zrotation Xrotation Yrotation
      End Site
      {
        OFFSET 0.12000000 0.00000000 0.00000000
      }
    }
  }
}
MOTION
Frames:	16
Frame Time:	0.0166667
0.0000000 0.4483680 0.0000000 10.7542 3.29880 -0.62617 170.755 0.818295 4.1603 11.338 3.02974 -23.6427 1.65682 -16.6391 22.3316 -103.484 61.9726 111.095 -179.517 -49.7047 153.62 93.0695 -15.9235 -137.146 -66.1662 5.86617 11.0419 -34.4725 7.97218 -22.3745 83.5716 -18.565 49.8463 -26.9117 -50.1981 61.3658 -13.7901 12.8994 -72.8676 -17.9832 -4.76818 33.7327 -129.809 -6.86768 -14.1284 66.2132 27.4366 14.6579 39.6936 -5.6938 -9.49936 -104.238 -5.7123 -12.3456 68.1224 -11.3348 1.76632 73.081 2.80567 -1.13856 -41.7077 -26.7823 -20.4063 -1.74798 34.6497 -5.64881 
-0.0447298 0.4556100 0.0040285 13.7680 2.46451 1.21717 164.676 0.674441 6.99286 20.2176 1.36274 -24.3459 1.21042 -15.5569 31.0788 23.3246 82.7538 -34.5859 178.217 -50.8785 153.296 92.9014 -17.7066 -133.821 -66.0116 7.96862 10.1971 -36.4951 8.71894 -23.1146 82.739 -20.5442 51.9481 3.77818 -56.6421 80.9559 -24.8854 22.2952 -57.0032 -12.5397 -3.16313 30.4915 -126.133 -7.05117 -12.9612 60.7232 28.3092 15.7065 47.7435 -6.31368 -9.65185 -106.519 -4.06291 -10.3605 70.2169 -10.6867 0.252001 68.6927 2.72263 -0.795369 -37.3092 -21.4241 -13.9926 -1.95216 25.6721 -3.48738 
-0.0879916 0.4642880 0.0079731 15.4887 1.87470 2.21611 161.743 0.741187 10.0374 26.3223 0.463898 -25.8132 3.0973 -30.9427 35.964 41.1744 72.5882 -88.1255 162.061 -49.4815 141.654 94.5283 -23.5574 -129.87 -58.8093 9.70031 4.33416 -38.8384 11.039 -26.4328 82.9387 -20.8331 54.2783 14.3291 -61.4254 85.5456 -24.531 25.2103 -48.2283 -11.5626 -2.44302 24.6971 -121.724 -6.85352 -11.6518 54.8815 28.9588 15.9873 56.9853 -6.45535 -9.14454 -110.188 -1.63056 -7.93693 76.9794 -9.08621 -1.50458 63.2611 2.65406 -0.400682 -32.2592 -16.4295 -7.39129 -1.43358 17.8449 -1.98957 
-0.1305732 0.4740250 0.0123696 15.7756 1.33799 3.03922 161.065 1.14352 12.1437 31.2253 -0.162276 -27.2695 6.10898 -40.0489 41.0398 34.9658 71.1532 -88.5462 179.458 -50.1491 153.383 97.694 -20.4758 -131.737 -64.1833 9.67208 8.21208 -36.3121 8.78211 -23.0256 83.2676 -20.9048 56.677 4.82788 -64.3418 70.9918 -15.7242 26.8885 -48.3732 -14.3051 -2.98596 21.534 -116.236 -6.67854 -9.15812 50.3413 29.6314 13.8305 63.7989 -5.57612 -7.85857 -113.841 1.1728 -5.60406 84.7372 -6.29138 -2.82002 59.0872 2.12799 -0.49663 -26.859 -11.5947 -0.931324 -0.214412 11.4129 -0.52103 
-0.1733167 0.4825290 0.0159116 15.4344 0.62960 2.92091 161.446 1.62287 12.9492 35.0599 -0.6136 -27.5354 3.3357 -41.1425 41.7152 31.3317 60.6171 -84.233 179.784 -49.708 153.13 99.7828 -21.9648 -130.783 -62.683 8.94167 6.80139 -32.6708 6.89664 -20.2267 83.6442 -20.3878 57.4584 -10.5049 -62.3947 56.4233 -2.39159 28.7448 -60.5223 -21.3125 -8.32166 31.808 -112.894 -6.74114 -6.24921 52.4601 25.3853 9.84606 67.7096 -4.25651 -6.58069 -118.801 3.40631 -3.42511 93.4645 -4.10966 -3.49222 53.7245 1.64918 -0.474631 -21.8456 -7.18726 6.17457 1.37857 6.5044 1.06575 
-0.2165840 0.4891040 0.0197895 14.9180 0.02630 2.25415 162.473 2.21243 13.115 37.4718 -0.735461 -27.7273 1.45937 -43.6265 41.9021 30.0868 55.5468 -84.4096 -179.058 -49.056 153.228 102.519 -23.5373 -129.779 -60.176 6.99964 5.56744 -28.6997 5.86383 -18.8005 85.0413 -17.3494 56.4493 -39.3391 -47.6259 41.4001 3.36248 9.76318 -72.6025 -26.9906 -9.59951 32.674 -112.282 -6.8797 -4.88152 59.0584 14.9119 6.93093 70.2115 -3.6305 -6.10698 -124.557 4.70143 -1.92856 101.039 -3.36303 -3.74652 48.2979 1.22228 -0.381488 -17.9189 -3.45427 13.5748 3.25317 3.15433 2.80641 
-0.2597781 0.4947820 0.0239422 14.1778 -0.22213 1.45137 163.784 2.91051 12.4691 38.6063 -0.330496 -26.7208 1.73622 -49.5536 41.4845 30.0915 60.4845 -90.1988 -176.412 -47.8631 153.759 104.614 -24.6741 -130.635 -57.4888 4.45476 4.64271 -22.4819 3.79572 -14.8829 86.5505 -13.9519 53.8096 -49.9967 -42.4004 38.0208 12.919 0.512525 -82.0163 -30.1318 -13.0662 38.8921 -112.022 -7.24556 -5.69278 65.3395 10.4552 6.19678 67.8919 -3.54241 -6.13837 -129.787 5.02136 -1.49409 105.123 -5.53372 -4.05854 43.0684 0.947858 -0.131841 -15.0241 -0.752617 20.7858 5.19048 1.26936 4.85852 
-0.3028202 0.4986930 0.0285920 13.6189 0.05995 0.93254 165.774 3.58032 12.2216 37.7559 0.422952 -26.0565 0.656394 -53.2545 39.2981 34.0616 65.0738 -98.0776 -174.181 -47.4303 154.863 104.562 -25.747 -130.712 -56.2201 0.981241 3.83808 -12.8544 1.15151 -7.46845 88.4464 -10.0996 49.8202 -109.237 41.9193 42.0662 93.274 -52.8494 3.50406 -51.2738 -14.0929 28.3199 -113.593 -6.62621 -7.16894 73.648 10.7056 4.78776 62.8142 -3.29316 -6.03959 -134.778 5.51138 -1.80819 105.902 -8.11019 -4.46272 39.0226 0.68747 -0.0364731 -13.2689 0.780155 27.2633 6.99546 0.574909 7.22986 
-0.3454853 0.5018830 0.0335494 12.6428 0.45503 0.47013 169.016 4.43717 11.8927 34.929 1.69396 -25.274 -3.03514 -54.5592 33.8877 38.7117 65.7915 -104.624 -170.893 -46.807 156.553 102.788 -23.6741 -131.577 -55.7556 -12.9216 4.93348 5.92546 1.07016 1.17438 91.4478 -4.95693 46.3535 97.6464 27.2934 155.91 61.1878 -2.33438 112.718 -60.0064 16.1813 -19.1041 -115.924 -5.57424 -8.72177 82.6644 12.4179 3.1453 58.4974 -3.10855 -5.92672 -138.873 6.47496 -1.95696 103.702 -10.205 -4.95507 37.3456 0.61777 0.00569299 -11.7582 1.46863 33.4854 8.50356 0.747412 9.77052 
-0.3877208 0.5053970 0.0386032 11.0817 0.61339 0.16369 172.964 5.27305 11.5454 31.1784 3.073 -24.209 -7.16771 -56.6371 27.7423 42.0717 66.999 -109.532 -169.065 -46.3896 157.428 101.459 -20.4333 -132.216 -53.7503 -45.2626 10.9082 29.7472 3.1281 -15.3578 95.2447 1.07687 44.5869 74.4188 -2.17127 161.373 -75.1049 -46.548 39.5915 26.4449 -4.88402 -32.4798 -117.796 -4.60639 -10.1219 90.7055 14.3108 1.82065 52.7902 -3.09319 -5.94478 -141.7 7.59924 -1.43428 98.8587 -11.9731 -5.6583 39.1239 0.864574 0.11266 -10.0275 1.91565 39.4453 9.62131 1.40076 12.3768 
-0.4291711 0.5081890 0.0438081 9.12931 0.62996 -0.16866 177.345 5.82243 11.1895 26.658 4.20723 -23.5464 -9.8508 -60.1587 23.2172 46.7498 70.3539 -116.235 -167.363 -45.7736 157.969 99.8827 -20.4046 -136.469 -26.9393 -72.9074 45.2349 36.683 -0.944857 -42.3414 99.21 7.30361 43.8463 79.399 -12.7502 167.763 -103.451 2.64884 13.1467 38.9757 5.06471 23.9843 -119.931 -3.5806 -11.2663 98.5605 14.6085 0.746351 46.4826 -3.04482 -5.96937 -143.311 8.50549 -1.04047 91.9338 -12.923 -6.57582 43.4616 1.30873 0.196517 -8.16245 2.03011 45.5022 10.3792 2.2899 14.889 
-0.4695246 0.5101200 0.0486873 6.80716 0.77682 -0.76807 -178.095 5.94493 10.6902 21.7591 4.95038 -23.5937 -11.4935 -62.1553 19.5958 53.0239 73.5792 -123.468 -163.578 -44.025 158.676 94.8243 -17.3591 -147.696 51.3518 -61.1642 135.992 28.8961 -0.708378 -65.5187 103.175 13.0954 42.364 86.3764 -19.8623 178.423 -102.241 22.3644 6.17327 30.3275 7.25608 41.434 -122.299 -2.60233 -12.5333 105.412 14.5233 -0.0443856 41.3791 -2.93665 -5.91076 -143.33 8.83463 -1.98109 83.1874 -12.3769 -7.1387 49.3235 1.702 0.0677506 -6.0615 1.62949 51.6532 10.7266 3.1692 17.2838 
-0.5085553 0.5105790 0.0531857 4.18306 1.07575 -1.78152 -174.16 5.86589 9.48228 17.5204 5.5584 -23.7023 175.172 64.1417 156.357 114.102 -78.2893 39.7594 -159.743 -42.2226 159.324 92.0093 -10.0236 -157.143 48.0636 -44.4682 145.412 20.1872 4.28234 -68.8036 107.182 18.4157 40.4057 94.77 -22.0984 -172.613 -96.7433 28.6713 2.74682 25.9976 6.36461 41.6659 -125.2 -1.78365 -14.1181 111.531 14.5748 -0.679282 38.6232 -2.72869 -5.62958 -141.719 8.25741 -4.43835 72.9573 -11.0628 -6.67638 56.0025 2.01599 -0.249915 -3.72317 0.654448 57.7073 10.8915 3.90521 19.424 
-0.5461224 0.5093960 0.0573077 1.50006 1.31637 -3.19793 -171.073 5.29585 7.47586 13.79 5.83737 -23.5787 177.901 64.6542 155.711 88.5569 -81.5257 14.8078 -157.178 -41.0763 159.831 93.8896 -0.885247 -163.34 40.394 -38.3901 147.298 18.7246 5.23243 -63.3047 110.956 22.7298 37.9314 103.875 -24.9034 -166.438 -88.4359 31.52 -2.27071 19.0071 4.21439 36.9975 -128.455 -1.28861 -15.3687 116.7 14.3781 -1.17197 35.6776 -2.47137 -5.21906 -138.902 6.5624 -7.65764 62.0054 -11.2506 -4.77601 62.9671 2.3523 -0.612714 -1.24703 -0.328767 63.173 10.653 4.3688 21.6077 
-0.5817586 0.5058520 0.0611194 -0.98041 1.18082 -4.79873 -168.38 3.99068 4.86908 9.29186 5.7211 -23.0318 -177.321 64.7228 152.56 70.1089 -82.7152 -3.44884 -156.192 -40.7598 160.208 97.5178 7.78668 -167.671 31.9152 -40.6164 145.282 17.5041 5.30156 -54.6182 114.188 25.7817 35.2577 115.32 -33.0951 -160.595 -74.1414 38.8984 -16.1287 6.22924 1.2518 35.926 -132.495 -1.49745 -16.3137 120.499 15.5315 -1.39539 31.536 -2.41392 -5.03524 -136.696 4.57025 -10.5916 55.443 -13.764 -1.54795 66.8609 2.76187 -0.759698 1.06302 -1.20677 67.2653 10.1562 4.52266 23.8404 
-0.6152316 0.4991820 0.0648783 -3.23674 0.81937 -6.82904 -166.384 2.30301 1.81295 5.19585 5.29322 -22.1934 0.0208368 -61.6772 23.9493 77.0123 82.0245 -146.809 -156.214 -41.3604 161.075 99.5855 14.764 -168.896 18.8834 -49.6408 135.614 19.7217 3.31931 -40.9012 115.992 27.4729 33.9664 124.844 -41.3828 -154.014 -61.1927 40.0776 -31.8412 -4.66726 -0.788122 33.7519 -137.514 -2.34377 -17.06 122.797 16.1186 -1.37849 28.8583 -2.32337 -4.77649 -134.342 3.55113 -11.8356 53.8178 -14.3315 0.562875 68.3882 2.92301 -0.87875 3.20556 -1.87695 70.0063 9.47971 4.34485 25.8502 
